<svg width="734.25" height="93.25" viewBox="0 0 734.25 93.25" xmlns="http://www.w3.org/2000/svg"><g id="svgGroup" stroke-linecap="round" fill-rule="evenodd" font-size="9pt" stroke="#000" stroke-width="0.25mm" fill="none" style="stroke:#000;stroke-width:0.25mm;fill:none"><path d="M 448.9 6.5 L 448.85 23.95 Q 448.8 28.5 448.8 35.95 L 423.15 35.95 A 42.179 42.179 0 0 0 422.903 32.458 Q 422.703 30.646 422.35 28.62 A 78.773 78.773 0 0 0 422.075 27.125 Q 421.1 22.1 419.575 18.475 Q 418.05 14.85 416.3 14.85 Q 414.7 14.85 414.3 17.25 Q 413.967 19.246 413.911 22.901 A 101.21 101.21 0 0 0 413.9 24.45 A 40.798 40.798 0 0 0 414.098 28.61 Q 414.603 33.525 416.4 36.4 Q 418.9 40.4 422.525 41.625 A 29.369 29.369 0 0 0 425.298 42.4 Q 426.755 42.737 428.468 43.012 A 72.533 72.533 0 0 0 432.15 43.5 A 76.336 76.336 0 0 1 435.452 43.919 Q 438.607 44.395 440.794 45.055 A 21.902 21.902 0 0 1 441.1 45.15 A 9.75 9.75 0 0 1 445.214 47.768 A 13.416 13.416 0 0 1 446.675 49.6 Q 448.95 53 448.95 59.75 Q 448.95 64.15 447.1 67.575 Q 445.25 71 441.825 72.925 A 14.909 14.909 0 0 1 436.584 74.662 A 19.265 19.265 0 0 1 433.85 74.85 A 33.996 33.996 0 0 1 429.268 74.561 Q 426.987 74.25 425.091 73.605 A 15.85 15.85 0 0 1 422.375 72.4 A 14.717 14.717 0 0 1 417.084 67.221 A 19.539 19.539 0 0 1 415.775 64.7 Q 414.183 61.027 413.24 55.615 A 77.308 77.308 0 0 1 412.55 50.65 L 409.85 50.55 A 58.785 58.785 0 0 0 410.169 56.776 A 50.686 50.686 0 0 0 410.525 59.45 A 123.903 123.903 0 0 0 411.126 62.86 Q 411.416 64.39 411.772 66.1 A 257.968 257.968 0 0 0 412.55 69.7 L 413.35 73.35 Q 410.611 73.35 407.227 73.102 A 124.004 124.004 0 0 1 407.2 73.1 Q 403.813 72.851 401.072 72.85 A 58.684 58.684 0 0 0 401.05 72.85 A 64.971 64.971 0 0 0 398.99 72.885 Q 397.15 72.944 394.9 73.1 Q 394.163 73.146 392.43 73.235 A 767.254 767.254 0 0 1 392.125 73.25 Q 390.613 73.327 389.409 73.345 A 47.618 47.618 0 0 1 388.7 73.35 L 388.75 57.85 Q 388.788 54.864 388.797 50.12 A 1626.592 1626.592 0 0 0 388.8 47.05 L 415.4 47.05 A 293.604 293.604 0 0 0 415.983 50.499 Q 416.566 53.821 417.076 56.18 A 66.18 66.18 0 0 0 417.525 58.125 Q 418.45 61.85 419.4 63.25 A 4.017 4.017 0 0 0 420.016 63.973 A 2.439 2.439 0 0 0 421.7 64.65 A 1.733 1.733 0 0 0 423.256 63.759 Q 423.609 63.188 423.775 62.25 Q 424.2 59.85 424.2 55.45 A 22.474 22.474 0 0 0 423.953 52.005 Q 423.411 48.516 421.675 46.35 Q 419.15 43.2 415.45 42.05 Q 411.75 40.9 405.45 39.95 A 103.338 103.338 0 0 1 401.615 39.325 Q 397.808 38.625 395.174 37.782 A 30.318 30.318 0 0 1 395 37.725 Q 391.1 36.45 388.4 32.975 A 11.362 11.362 0 0 1 386.602 29.487 Q 386.081 27.885 385.861 25.934 A 27.106 27.106 0 0 1 385.7 22.9 Q 385.7 14 391.35 9.375 Q 396.294 5.328 404.455 4.822 A 38.748 38.748 0 0 1 406.85 4.75 A 19.509 19.509 0 0 1 411.219 5.217 A 14.81 14.81 0 0 1 415.7 7.025 A 11.987 11.987 0 0 1 418.525 9.501 Q 419.611 10.776 420.575 12.476 A 29.04 29.04 0 0 1 422 15.375 A 36.165 36.165 0 0 1 423.556 19.892 Q 424.994 25.06 425.8 32.45 L 428.5 32.5 L 425.2 6.5 A 48.301 48.301 0 0 1 426.977 6.535 Q 428.563 6.594 430.5 6.75 A 63.748 63.748 0 0 0 430.934 6.777 Q 431.722 6.824 433.2 6.9 Q 435.15 7 436.8 7 A 28.333 28.333 0 0 0 437.426 6.991 Q 439.084 6.953 443.35 6.75 A 101.403 101.403 0 0 1 445.654 6.598 Q 446.784 6.537 447.77 6.514 A 48.754 48.754 0 0 1 448.9 6.5 Z M 524.15 64.55 L 524.15 73.15 A 80.641 80.641 0 0 1 521.626 73.108 Q 520.227 73.064 518.652 72.974 A 153.826 153.826 0 0 1 516.7 72.85 A 252.552 252.552 0 0 0 515.131 72.765 Q 513.402 72.677 512.397 72.657 A 27.005 27.005 0 0 0 511.85 72.65 A 36.747 36.747 0 0 0 511.084 72.66 Q 509.857 72.686 507.646 72.784 A 425.368 425.368 0 0 0 506.2 72.85 Q 499.55 73.1 495.95 73.15 L 494.4 70.35 Q 495 64.85 495.275 58.425 A 406.49 406.49 0 0 0 495.395 55.355 Q 495.55 50.963 495.55 47.85 A 351.963 351.963 0 0 0 495.545 45.966 Q 495.533 43.626 495.486 42.299 A 44.458 44.458 0 0 0 495.475 42 Q 495.4 40.2 495.05 39.325 A 1.951 1.951 0 0 0 494.843 38.932 Q 494.68 38.699 494.465 38.578 A 1.035 1.035 0 0 0 493.95 38.45 Q 492.75 38.45 491.2 41.25 Q 489.65 44.05 488.2 49.7 Q 487.09 54.026 486.331 59.788 A 140.22 140.22 0 0 0 485.9 63.45 A 10.43 10.43 0 0 0 487.855 64.105 Q 489.947 64.6 492.9 64.6 L 492.9 73.15 A 77.047 77.047 0 0 1 490.015 73.093 Q 488.05 73.019 485.8 72.85 Q 482.58 72.582 480.48 72.554 A 35.618 35.618 0 0 0 480 72.55 A 572.802 572.802 0 0 0 471.253 72.614 Q 466.946 72.679 463.159 72.814 A 291.166 291.166 0 0 0 458.8 73 Q 456.566 73.103 454.757 73.136 A 87.602 87.602 0 0 1 453.2 73.15 L 453.2 64.6 Q 457.175 64.518 459.32 63.748 A 6.595 6.595 0 0 0 460.175 63.375 A 5.138 5.138 0 0 0 462.5 60.822 A 7.66 7.66 0 0 0 462.95 59.45 Q 463.444 57.323 463.562 53.262 A 94.911 94.911 0 0 0 463.6 50.5 L 463.6 36.4 A 371.621 371.621 0 0 0 463.564 31.027 Q 463.456 23.607 463.025 20.025 Q 462.554 16.111 461.175 14.263 A 4.675 4.675 0 0 0 460.525 13.55 A 5.616 5.616 0 0 0 458.874 12.571 Q 456.984 11.816 453.9 11.75 L 453.9 3.15 A 14.789 14.789 0 0 1 454.508 3.116 Q 456.169 3.05 460.8 3.05 A 554.256 554.256 0 0 0 468.383 3.001 Q 471.374 2.96 474.085 2.885 A 298.83 298.83 0 0 0 479.225 2.7 Q 487 2.35 489.75 1.1 L 492.15 4.15 A 34.714 34.714 0 0 0 489.735 8.92 Q 487.63 13.92 485.998 21.101 A 118.128 118.128 0 0 0 485.775 22.1 Q 483.2 33.9 481.4 54 L 480.4 65 L 482.3 65.3 L 482.35 65.05 Q 483.11 53.53 485.726 44.969 A 55.185 55.185 0 0 1 487.15 40.875 A 55.733 55.733 0 0 1 489.903 34.88 Q 491.481 31.95 493.254 29.688 A 24.644 24.644 0 0 1 496.325 26.4 A 22.479 22.479 0 0 1 500.007 23.724 Q 503.541 21.7 507.15 21.7 Q 511.15 21.7 514.45 24.15 A 14.655 14.655 0 0 1 517.893 27.826 A 20.316 20.316 0 0 1 519.7 31.225 A 23.887 23.887 0 0 1 521.222 36.598 Q 521.623 39.01 521.648 41.735 A 39.612 39.612 0 0 1 521.65 42.1 A 43.67 43.67 0 0 1 520.603 51.318 Q 519.339 57.165 516.55 63.7 Q 518.999 64.283 522.233 64.474 A 52.921 52.921 0 0 0 524.15 64.55 Z M 25.95 72.5 L 25.65 72.5 Q 16.6 72.5 5.95 72.9 A 499.34 499.34 0 0 1 4.127 72.978 Q 1.835 73.072 0.633 73.094 A 35.435 35.435 0 0 1 0 73.1 L 0 65 A 19.423 19.423 0 0 0 2.53 64.794 Q 3.834 64.594 4.891 64.207 A 7.511 7.511 0 0 0 7.2 62.9 Q 9.178 61.217 9.881 59.303 A 6.352 6.352 0 0 0 10.1 58.575 A 20.686 20.686 0 0 0 10.611 54.985 A 24.341 24.341 0 0 0 10.65 53.6 L 10.65 25.95 A 19.933 19.933 0 0 0 10.476 23.264 A 16.127 16.127 0 0 0 10.1 21.35 Q 9.621 19.523 7.779 17.96 A 11.672 11.672 0 0 0 7.2 17.5 A 7.676 7.676 0 0 0 5.137 16.438 Q 3.199 15.759 0.383 15.661 A 26.835 26.835 0 0 0 0 15.65 L 0 6.3 Q 1.5 6.3 4.9 6.5 Q 12.9 6.9 22.45 6.9 A 19.611 19.611 0 0 0 23.644 6.858 Q 25.676 6.732 29.212 6.231 A 153.178 153.178 0 0 0 29.25 6.225 A 139.227 139.227 0 0 0 32.609 5.708 Q 35.238 5.269 37.3 4.8 L 39.35 6.65 Q 35.95 15.8 34.15 25.15 A 180.784 180.784 0 0 0 32.33 36.447 A 149.161 149.161 0 0 0 31.65 42.85 Q 30.985 50.784 30.455 62.691 A 935.089 935.089 0 0 0 30.4 63.95 Q 30.304 65.202 30.207 67.843 A 284.557 284.557 0 0 0 30.2 68.05 Q 32 68.45 33.2 68.6 L 33.2 67.05 A 235.969 235.969 0 0 1 33.771 50.041 Q 34.928 34.087 38.429 23.264 A 64.452 64.452 0 0 1 39.125 21.225 Q 42.144 12.856 46.779 8.752 A 15.226 15.226 0 0 1 57.2 4.8 A 14.678 14.678 0 0 1 63.568 6.307 Q 65.732 7.339 67.875 9.075 Q 72.655 12.949 75.896 19.945 A 45.857 45.857 0 0 1 76.55 21.425 A 41.978 41.978 0 0 1 79.252 31.072 A 58.049 58.049 0 0 1 79.95 40.3 A 57.12 57.12 0 0 1 79.372 48.653 Q 78.528 54.358 76.45 58.9 A 26.995 26.995 0 0 1 71.417 66.431 A 24.292 24.292 0 0 1 66.25 70.525 A 27.648 27.648 0 0 1 57.307 73.844 A 38.253 38.253 0 0 1 50.05 74.5 Q 46.337 74.5 43.444 74.31 A 60.436 60.436 0 0 1 41.75 74.175 A 173.885 173.885 0 0 1 39.001 73.893 Q 37.788 73.759 36.463 73.598 A 307.467 307.467 0 0 1 33.7 73.25 A 154.793 154.793 0 0 0 32.434 73.064 Q 30.879 72.843 29.719 72.715 A 50.414 50.414 0 0 0 29.35 72.675 Q 27.65 72.5 25.95 72.5 Z M 694.6 67.35 L 694.45 71.35 L 694.4 73.35 Q 694.4 78 696.875 81.55 A 7.162 7.162 0 0 0 699.829 83.931 Q 702.449 85.142 706.7 85.2 L 706.7 93.25 A 92.438 92.438 0 0 1 703.815 93.202 Q 701.85 93.141 699.6 93 Q 693.025 92.687 688.691 92.654 A 130.169 130.169 0 0 0 687.7 92.65 Q 682.111 92.65 678.471 92.768 A 113.956 113.956 0 0 0 676.425 92.85 A 888.583 888.583 0 0 1 675.055 92.918 Q 672.843 93.026 672.139 93.046 A 9.244 9.244 0 0 1 671.9 93.05 A 341.423 341.423 0 0 1 670.033 93.137 Q 668.022 93.224 666.843 93.244 A 37.599 37.599 0 0 1 666.2 93.25 L 666.2 85.2 Q 669.276 85.144 671.21 84.127 A 5.717 5.717 0 0 0 673.55 81.925 A 13.254 13.254 0 0 0 675.095 77.705 A 18.127 18.127 0 0 0 675.4 74.3 L 675.35 71.35 L 675.25 48 L 675.25 46.3 Q 675.25 40.05 674.8 37.4 A 6.552 6.552 0 0 0 674.059 35.25 A 5.762 5.762 0 0 0 672.275 33.325 A 6.58 6.58 0 0 0 670.705 32.56 Q 669.124 32.011 666.735 31.826 A 30.919 30.919 0 0 0 665.3 31.75 L 665.3 23.15 Q 666.6 23.15 667.7 23.2 Q 672.2 23.3 677.3 23.3 A 256.166 256.166 0 0 0 684.969 23.194 Q 691.907 22.985 696.504 22.366 A 39.58 39.58 0 0 0 700.7 21.6 L 702 23.15 Q 698.222 31.046 695.593 41.592 A 135.875 135.875 0 0 0 695.425 42.275 A 133.517 133.517 0 0 0 693.395 52.119 Q 692.516 57.446 692.25 62.2 L 694.65 63.9 Q 694.988 51.72 698.083 42.367 A 54.858 54.858 0 0 1 698.3 41.725 A 47.465 47.465 0 0 1 701.229 34.901 Q 703.788 30.09 707.2 26.875 A 19.891 19.891 0 0 1 712.89 23.046 A 17.487 17.487 0 0 1 719.95 21.6 A 10.779 10.779 0 0 1 727.124 24.313 A 13.652 13.652 0 0 1 727.225 24.4 Q 730.45 27.2 732.35 33.025 A 34.323 34.323 0 0 1 733.562 38.139 Q 733.992 40.775 734.153 43.831 A 72.597 72.597 0 0 1 734.25 47.65 A 49.987 49.987 0 0 1 733.833 54.29 Q 733.376 57.694 732.419 60.582 A 27.55 27.55 0 0 1 731.725 62.45 Q 729.2 68.55 724.675 71.625 A 17.832 17.832 0 0 1 715.665 74.652 A 22.048 22.048 0 0 1 714.2 74.7 A 25.509 25.509 0 0 1 708.142 73.941 A 32.241 32.241 0 0 1 704.6 72.85 A 38.081 38.081 0 0 1 698.352 69.836 A 47.957 47.957 0 0 1 694.6 67.35 Z M 337.75 45.7 L 337.75 49.8 Q 337.75 53.224 338.112 55.822 A 25.357 25.357 0 0 0 338.375 57.375 A 9.995 9.995 0 0 0 339.742 60.819 A 9.345 9.345 0 0 0 341.125 62.5 A 6.805 6.805 0 0 0 343.67 64.017 Q 344.717 64.378 345.995 64.516 A 15.264 15.264 0 0 0 347.45 64.6 L 347.45 73.05 Q 341.821 72.749 337.337 72.707 A 152.397 152.397 0 0 0 335.9 72.7 Q 327.141 72.7 320.612 73.755 A 50.838 50.838 0 0 0 315.25 74.9 L 312.8 71.65 A 42.383 42.383 0 0 0 317.04 63.879 A 53.369 53.369 0 0 0 318.975 58.475 A 73.418 73.418 0 0 0 321.473 46.48 A 85.619 85.619 0 0 0 321.9 42.2 L 322.55 33.65 L 320.25 32 Q 319.912 44.18 316.817 53.534 A 54.858 54.858 0 0 1 316.6 54.175 A 47.465 47.465 0 0 1 313.671 61 Q 311.113 65.811 307.7 69.025 A 19.891 19.891 0 0 1 302.01 72.855 A 17.487 17.487 0 0 1 294.95 74.3 A 10.779 10.779 0 0 1 287.776 71.587 A 13.652 13.652 0 0 1 287.675 71.5 Q 284.45 68.7 282.55 62.875 A 34.323 34.323 0 0 1 281.338 57.761 Q 280.908 55.125 280.747 52.069 A 72.597 72.597 0 0 1 280.65 48.25 A 49.987 49.987 0 0 1 281.067 41.611 Q 281.524 38.207 282.481 35.318 A 27.55 27.55 0 0 1 283.175 33.45 Q 285.7 27.35 290.225 24.275 A 17.832 17.832 0 0 1 299.235 21.248 A 22.048 22.048 0 0 1 300.7 21.2 A 25.127 25.127 0 0 1 306.63 21.939 A 31.796 31.796 0 0 1 310.1 23 A 39.106 39.106 0 0 1 316.206 25.892 A 49.215 49.215 0 0 1 319.95 28.3 Q 320 27.25 320 25.35 Q 320 20.75 319.15 18.075 Q 318.3 15.4 315.875 13.975 Q 313.45 12.55 308.7 12.45 L 308.7 3.15 L 314.85 2.95 Q 323.795 2.682 329.72 2.414 A 469.614 469.614 0 0 0 331.075 2.35 A 154.184 154.184 0 0 0 333.599 2.209 Q 337.019 1.988 338.708 1.684 A 10.853 10.853 0 0 0 339.35 1.55 L 341.1 2.35 Q 339.35 9.75 338.55 16 Q 337.75 22.25 337.75 31.15 L 337.75 45.7 Z M 229.5 23.15 L 229.5 32.5 Q 225.827 32.5 223.735 32.989 A 8.655 8.655 0 0 0 222.825 33.25 A 6.041 6.041 0 0 0 220.872 34.417 Q 219.889 35.272 219.025 36.625 Q 217.35 39.25 214.85 45.75 A 714.371 714.371 0 0 0 212.955 50.716 Q 210.306 57.738 208.825 62.2 Q 206.85 68.15 205.9 73.15 L 205.7 73.1 L 205.8 73.15 Q 204 73.15 201.85 73.05 Q 199.7 72.95 197.9 72.9 Q 192.647 72.655 190.093 72.65 A 53.687 53.687 0 0 0 190 72.65 Q 187.75 72.65 185 72.9 Q 184.401 72.946 183.018 73.035 A 532.327 532.327 0 0 1 182.775 73.05 Q 181.305 73.144 180.117 73.15 A 32.05 32.05 0 0 1 179.95 73.15 A 65.181 65.181 0 0 0 178.654 67.191 A 83.791 83.791 0 0 0 177.175 62.25 A 165.446 165.446 0 0 0 176.07 59.044 Q 174.784 55.422 172.894 50.497 A 680.805 680.805 0 0 0 171.05 45.75 A 127.531 127.531 0 0 0 169.852 42.763 Q 168.131 38.638 166.875 36.65 Q 165.2 34 163.175 33.25 Q 161.505 32.632 158.289 32.523 A 42.748 42.748 0 0 0 156.85 32.5 L 156.85 23.15 A 118.328 118.328 0 0 1 158.027 23.157 Q 159.906 23.175 162.475 23.25 Q 165.9 23.35 167.4 23.4 Q 171.688 23.592 174.539 23.637 A 102.957 102.957 0 0 0 176.15 23.65 A 44.671 44.671 0 0 0 176.795 23.643 Q 178.694 23.613 184.95 23.45 A 9908.5 9908.5 0 0 1 187.721 23.392 Q 196.838 23.2 197.8 23.2 L 197.95 32.7 Q 191.15 32.7 191.15 35.25 Q 191.15 36.117 191.712 37.046 A 5.504 5.504 0 0 0 191.825 37.225 A 17.004 17.004 0 0 0 192.208 37.78 Q 192.649 38.395 193.284 39.19 A 63.213 63.213 0 0 0 193.9 39.95 A 22.927 22.927 0 0 1 196.698 44.371 A 16.365 16.365 0 0 1 198.35 51.45 Q 198.35 54.55 197.35 57.45 A 46.442 46.442 0 0 1 196.473 59.773 Q 195.638 61.832 194.45 64.3 A 273.453 273.453 0 0 0 193.786 65.76 Q 192.956 67.6 192.555 68.58 A 19.621 19.621 0 0 0 192.35 69.1 L 195.05 69.65 L 198.25 61.95 L 204.9 43.8 Q 205.15 43.1 205.4 42.55 A 21.239 21.239 0 0 0 205.573 42.159 Q 205.656 41.966 205.724 41.796 A 10.257 10.257 0 0 0 205.8 41.6 Q 206.516 39.945 206.911 38.831 A 21.052 21.052 0 0 0 207 38.575 A 7.845 7.845 0 0 0 207.306 37.397 A 6.085 6.085 0 0 0 207.4 36.35 Q 207.4 34.6 205.85 33.65 A 4.81 4.81 0 0 0 204.74 33.17 Q 203.202 32.7 200.6 32.7 L 200.75 23.2 Q 202.7 23.2 205.05 23.45 A 18.893 18.893 0 0 0 205.315 23.475 Q 205.742 23.511 206.518 23.565 A 225.45 225.45 0 0 0 207.025 23.6 Q 208.5 23.7 209.95 23.7 Q 217.4 23.65 224.7 23.3 A 132.076 132.076 0 0 1 226.711 23.209 Q 227.496 23.18 228.193 23.165 A 62.422 62.422 0 0 1 229.5 23.15 Z M 662.05 24.15 L 657.6 46.85 A 33.935 33.935 0 0 0 652.408 44.915 Q 649.418 44.086 646.626 44.008 A 20.698 20.698 0 0 0 646.05 44 A 11.426 11.426 0 0 0 643.635 44.242 A 8.024 8.024 0 0 0 640.65 45.525 Q 638.614 46.969 637.184 50.834 A 25.155 25.155 0 0 0 637.025 51.275 A 29.611 29.611 0 0 0 636.179 54.242 Q 635.426 57.445 634.912 61.98 A 115.358 115.358 0 0 0 634.75 63.5 A 24.103 24.103 0 0 0 637.816 64.42 Q 639.728 64.85 641.45 64.85 L 641.45 73.15 Q 638.8 73.15 635.575 73.05 A 1468.602 1468.602 0 0 1 634.129 73.005 Q 632.535 72.954 631.606 72.92 A 159.502 159.502 0 0 1 631.1 72.9 A 260.112 260.112 0 0 0 626.614 72.729 Q 624.567 72.67 622.742 72.655 A 146.717 146.717 0 0 0 621.55 72.65 Q 619.35 72.65 610.95 72.9 Q 607.341 73.072 604.393 73.126 A 139.884 139.884 0 0 1 601.85 73.15 L 601.85 64.85 A 23.354 23.354 0 0 0 604.272 64.707 Q 607.119 64.378 608.7 63.3 A 6.761 6.761 0 0 0 611.298 59.856 A 9.038 9.038 0 0 0 611.575 58.9 Q 612.25 56 612.25 50.5 L 612.25 45.75 A 65.023 65.023 0 0 0 612.191 42.902 Q 612.063 39.971 611.65 37.925 A 8.958 8.958 0 0 0 610.604 35.126 A 7.928 7.928 0 0 0 608.925 33.125 A 6.788 6.788 0 0 0 606.754 31.901 Q 605.007 31.279 602.55 31.25 L 602.55 23.15 A 17.372 17.372 0 0 1 603.203 23.116 Q 604.835 23.055 609.098 23.051 A 666.662 666.662 0 0 1 609.85 23.05 A 557.191 557.191 0 0 0 616.586 23.012 Q 619.246 22.979 621.662 22.92 A 304.66 304.66 0 0 0 626.25 22.775 A 94.466 94.466 0 0 0 629.484 22.596 Q 633.975 22.263 636.3 21.55 L 638.8 24.15 Q 635.05 32 633.15 40.25 A 215.53 215.53 0 0 0 631.986 45.597 Q 631.497 47.994 631.139 50.095 A 93.123 93.123 0 0 0 630.55 54 L 629.05 64.85 L 631.2 64.85 Q 631.2 64.679 631.346 63.922 A 44.241 44.241 0 0 1 631.4 63.65 A 111.024 111.024 0 0 1 632.706 53.18 Q 633.678 47.651 635.191 42.873 A 66.124 66.124 0 0 1 635.65 41.475 A 60.566 60.566 0 0 1 638.05 35.45 Q 639.427 32.495 640.995 30.144 A 27.617 27.617 0 0 1 643.55 26.85 Q 646.781 23.307 650.205 22.225 A 10.056 10.056 0 0 1 653.25 21.75 A 15.596 15.596 0 0 1 655.715 21.956 A 20.465 20.465 0 0 1 657.775 22.4 A 18.753 18.753 0 0 1 660.288 23.26 A 14.876 14.876 0 0 1 662.05 24.15 Z M 142.4 45.7 L 142.4 49.8 Q 142.4 53.246 142.766 55.87 A 25.789 25.789 0 0 0 143.025 57.4 A 10.115 10.115 0 0 0 144.296 60.711 A 9.273 9.273 0 0 0 145.775 62.55 A 6.805 6.805 0 0 0 148.32 64.067 Q 149.367 64.428 150.645 64.566 A 15.264 15.264 0 0 0 152.1 64.65 L 152.1 73.05 L 149.95 73.05 A 873.043 873.043 0 0 0 144.484 73.114 Q 137.773 73.215 132.786 73.409 A 284.887 284.887 0 0 0 131.2 73.475 A 113.218 113.218 0 0 0 125.999 73.821 Q 123.433 74.054 121.165 74.398 A 61.223 61.223 0 0 0 118.55 74.85 L 116.55 72.25 Q 119.8 65 121.8 57.675 A 106.805 106.805 0 0 0 124.39 45.228 A 120.477 120.477 0 0 0 124.8 42.2 L 125.85 33.65 L 123.55 32 Q 123.212 44.18 120.117 53.534 A 54.858 54.858 0 0 1 119.9 54.175 A 47.465 47.465 0 0 1 116.971 61 Q 114.413 65.811 111 69.025 A 19.891 19.891 0 0 1 105.31 72.855 A 17.487 17.487 0 0 1 98.25 74.3 A 10.779 10.779 0 0 1 91.076 71.587 A 13.652 13.652 0 0 1 90.975 71.5 Q 87.75 68.7 85.85 62.875 A 34.323 34.323 0 0 1 84.638 57.761 Q 84.208 55.125 84.047 52.069 A 72.597 72.597 0 0 1 83.95 48.25 A 49.987 49.987 0 0 1 84.367 41.611 Q 84.824 38.207 85.781 35.318 A 27.55 27.55 0 0 1 86.475 33.45 Q 89 27.35 93.525 24.275 A 17.832 17.832 0 0 1 102.535 21.248 A 22.048 22.048 0 0 1 104 21.2 A 24.928 24.928 0 0 1 109.28 21.789 A 31.087 31.087 0 0 1 112.275 22.6 A 36.821 36.821 0 0 1 117.984 25.019 A 45.155 45.155 0 0 1 121 26.75 A 12.638 12.638 0 0 0 124.76 27.968 A 11.536 11.536 0 0 0 126.5 28.1 Q 128.35 28.1 130.225 27.65 A 50.689 50.689 0 0 0 131.242 27.394 Q 132.373 27.098 133.843 26.668 A 168.52 168.52 0 0 0 135.25 26.25 A 120.334 120.334 0 0 1 139.298 25.072 Q 141.154 24.568 142.829 24.189 A 68.313 68.313 0 0 1 143.925 23.95 Q 147.63 23.175 152.342 23.151 A 59.398 59.398 0 0 1 152.65 23.15 L 152.65 32.4 Q 147.75 32.5 145.675 33.45 A 4.529 4.529 0 0 0 143.305 35.996 A 6.743 6.743 0 0 0 143 36.975 A 15.572 15.572 0 0 0 142.738 38.486 Q 142.511 40.234 142.436 42.89 A 100.792 100.792 0 0 0 142.4 45.7 Z M 586.25 45.7 L 586.25 49.8 Q 586.25 53.246 586.616 55.87 A 25.789 25.789 0 0 0 586.875 57.4 A 10.115 10.115 0 0 0 588.146 60.711 A 9.273 9.273 0 0 0 589.625 62.55 A 6.805 6.805 0 0 0 592.17 64.067 Q 593.217 64.428 594.495 64.566 A 15.264 15.264 0 0 0 595.95 64.65 L 595.95 73.05 L 593.8 73.05 A 873.043 873.043 0 0 0 588.334 73.114 Q 581.623 73.215 576.636 73.409 A 284.887 284.887 0 0 0 575.05 73.475 A 113.218 113.218 0 0 0 569.849 73.821 Q 567.283 74.054 565.015 74.398 A 61.223 61.223 0 0 0 562.4 74.85 L 560.4 72.25 Q 563.65 65 565.65 57.675 A 106.805 106.805 0 0 0 568.24 45.228 A 120.477 120.477 0 0 0 568.65 42.2 L 569.7 33.65 L 567.4 32 Q 567.062 44.18 563.967 53.534 A 54.858 54.858 0 0 1 563.75 54.175 A 47.465 47.465 0 0 1 560.821 61 Q 558.263 65.811 554.85 69.025 A 19.891 19.891 0 0 1 549.16 72.855 A 17.487 17.487 0 0 1 542.1 74.3 A 10.779 10.779 0 0 1 534.926 71.587 A 13.652 13.652 0 0 1 534.825 71.5 Q 531.6 68.7 529.7 62.875 A 34.323 34.323 0 0 1 528.488 57.761 Q 528.058 55.125 527.897 52.069 A 72.597 72.597 0 0 1 527.8 48.25 A 49.987 49.987 0 0 1 528.217 41.611 Q 528.674 38.207 529.631 35.318 A 27.55 27.55 0 0 1 530.325 33.45 Q 532.85 27.35 537.375 24.275 A 17.832 17.832 0 0 1 546.385 21.248 A 22.048 22.048 0 0 1 547.85 21.2 A 24.928 24.928 0 0 1 553.13 21.789 A 31.087 31.087 0 0 1 556.125 22.6 A 36.821 36.821 0 0 1 561.834 25.019 A 45.155 45.155 0 0 1 564.85 26.75 A 12.638 12.638 0 0 0 568.61 27.968 A 11.536 11.536 0 0 0 570.35 28.1 Q 572.2 28.1 574.075 27.65 A 50.689 50.689 0 0 0 575.092 27.394 Q 576.223 27.098 577.693 26.668 A 168.52 168.52 0 0 0 579.1 26.25 A 120.334 120.334 0 0 1 583.148 25.072 Q 585.004 24.568 586.679 24.189 A 68.313 68.313 0 0 1 587.775 23.95 Q 591.48 23.175 596.192 23.151 A 59.398 59.398 0 0 1 596.5 23.15 L 596.5 32.4 Q 591.6 32.5 589.525 33.45 A 4.529 4.529 0 0 0 587.155 35.996 A 6.743 6.743 0 0 0 586.85 36.975 A 15.572 15.572 0 0 0 586.588 38.486 Q 586.361 40.234 586.286 42.89 A 100.792 100.792 0 0 0 586.25 45.7 Z M 265.75 49.7 L 265.75 51.65 A 60.565 60.565 0 0 0 265.794 54.03 Q 265.89 56.462 266.195 58.173 A 18.189 18.189 0 0 0 266.2 58.2 Q 266.65 60.7 268.9 62.625 Q 271.063 64.476 275.675 64.547 A 24.173 24.173 0 0 0 276.05 64.55 L 276.05 73.15 A 85.183 85.183 0 0 1 274.557 73.136 Q 273.225 73.113 271.6 73.05 Q 269.047 72.952 267.796 72.902 A 789.406 789.406 0 0 1 267.75 72.9 A 212.001 212.001 0 0 0 260.441 72.599 A 178.189 178.189 0 0 0 256.3 72.55 A 285.22 285.22 0 0 0 247.03 72.707 A 337.907 337.907 0 0 0 241.15 72.95 A 814.533 814.533 0 0 1 238.887 73.028 Q 236.047 73.122 234.603 73.144 A 50.822 50.822 0 0 1 233.85 73.15 L 233.85 64.55 Q 238.514 64.55 240.796 62.793 A 5.74 5.74 0 0 0 240.975 62.65 A 8.895 8.895 0 0 0 242.626 60.863 A 7.068 7.068 0 0 0 243.75 58.2 A 22.629 22.629 0 0 0 244.035 56.276 Q 244.25 54.275 244.25 51.65 L 244.25 49.7 L 244.25 45 A 54.671 54.671 0 0 0 244.193 42.411 Q 244.078 40.005 243.734 38.354 A 13.95 13.95 0 0 0 243.65 37.975 Q 243.05 35.45 240.95 34 Q 238.85 32.55 234.55 32.5 L 234.55 23.15 Q 237.055 23.15 238.679 23.11 A 77.698 77.698 0 0 0 239.05 23.1 A 498.194 498.194 0 0 0 247.371 23.034 Q 251.276 22.969 254.743 22.839 A 288.634 288.634 0 0 0 255.725 22.8 Q 261.529 22.563 264.9 21.917 A 20.802 20.802 0 0 0 266.5 21.55 L 268.95 24.15 Q 267.4 29.5 266.575 35.125 A 65.512 65.512 0 0 0 266.105 39.385 Q 265.928 41.606 265.839 44.185 A 160.707 160.707 0 0 0 265.75 49.7 Z M 51.084 68.54 A 4.507 4.507 0 0 0 51.95 68 A 4.665 4.665 0 0 0 53.583 65.307 A 7.277 7.277 0 0 0 53.75 63.7 A 15.436 15.436 0 0 0 53.668 62.149 A 20.369 20.369 0 0 0 53.475 60.75 A 43.964 43.964 0 0 0 53.317 59.888 Q 53.088 58.695 52.723 57.088 A 145.637 145.637 0 0 0 52.6 56.55 A 137.091 137.091 0 0 1 52.087 54.202 Q 51.845 53.045 51.657 52.025 A 68.571 68.571 0 0 1 51.45 50.85 Q 51.05 48.45 51.05 46 Q 51.05 44.728 51.117 43.962 A 8.546 8.546 0 0 1 51.15 43.65 Q 51.533 40.167 52.238 34.544 A 1418.479 1418.479 0 0 1 52.7 30.9 Q 53.2 27.05 53.55 23.9 Q 53.818 21.489 53.881 19.956 A 21.047 21.047 0 0 0 53.9 19.1 A 13.421 13.421 0 0 0 53.861 18.036 Q 53.777 16.99 53.515 16.337 A 2.463 2.463 0 0 0 53.275 15.875 A 1.973 1.973 0 0 0 52.188 15.091 Q 51.849 14.986 51.435 14.959 A 4.468 4.468 0 0 0 51.15 14.95 A 5.114 5.114 0 0 0 47.946 16.15 Q 46.215 17.511 44.676 20.415 A 27.882 27.882 0 0 0 43.925 21.95 Q 40.758 28.932 38.885 41.212 A 151.093 151.093 0 0 0 38.875 41.275 A 168.992 168.992 0 0 0 37.431 54.382 Q 36.925 61.325 36.85 69.05 A 82.058 82.058 0 0 0 42.027 69.389 A 101.773 101.773 0 0 0 45.6 69.45 Q 49.205 69.45 51.084 68.54 Z M 251.505 20.046 A 11.497 11.497 0 0 0 255.95 20.9 Q 259.1 20.9 261.6 19.5 Q 264.1 18.1 265.525 15.75 Q 266.95 13.4 266.95 10.6 A 12.578 12.578 0 0 0 266.941 10.135 A 10.543 10.543 0 0 0 265.55 5.175 Q 264.15 2.75 261.625 1.375 A 10.94 10.94 0 0 0 259.47 0.485 A 12.432 12.432 0 0 0 255.95 0 A 13.467 13.467 0 0 0 255.137 0.025 A 11.205 11.205 0 0 0 250.35 1.375 Q 247.85 2.75 246.4 5.175 A 10.084 10.084 0 0 0 245.667 6.666 A 10.666 10.666 0 0 0 244.95 10.6 Q 244.95 13.35 246.4 15.725 Q 247.85 18.1 250.375 19.5 A 11.055 11.055 0 0 0 251.505 20.046 Z M 697.85 64.6 L 697.85 65.45 Q 699.404 66.746 700.397 67.329 A 5.321 5.321 0 0 0 701.025 67.65 A 5.035 5.035 0 0 0 701.926 67.924 Q 702.393 68.023 702.943 68.067 A 11.589 11.589 0 0 0 703.85 68.1 A 1.935 1.935 0 0 0 705.346 67.363 Q 705.979 66.637 706.408 65.195 A 13.634 13.634 0 0 0 706.65 64.25 Q 707.357 61.049 707.476 55.22 A 121.092 121.092 0 0 0 707.5 52.75 A 607.44 607.44 0 0 0 707.494 49.899 Q 707.475 45.919 707.4 43.725 Q 707.302 40.849 707.01 39.665 A 4.855 4.855 0 0 0 707 39.625 A 3.84 3.84 0 0 0 706.866 39.198 Q 706.579 38.45 706.1 38.45 Q 703.574 38.45 701.508 44.466 A 37.025 37.025 0 0 0 701.225 45.325 Q 699.26 51.536 698.091 62.254 A 193.831 193.831 0 0 0 697.85 64.6 Z M 120.35 31.3 L 120.35 30.45 A 34.603 34.603 0 0 0 119.364 29.657 Q 118.46 28.958 117.803 28.572 A 5.321 5.321 0 0 0 117.175 28.25 A 5.035 5.035 0 0 0 116.274 27.976 Q 115.807 27.877 115.257 27.834 A 11.589 11.589 0 0 0 114.35 27.8 A 1.935 1.935 0 0 0 112.854 28.537 Q 112.221 29.263 111.792 30.705 A 13.634 13.634 0 0 0 111.55 31.65 Q 110.843 34.852 110.724 40.681 A 121.092 121.092 0 0 0 110.7 43.15 Q 110.7 49.25 110.8 52.175 Q 110.898 55.052 111.19 56.236 A 4.855 4.855 0 0 0 111.2 56.275 A 3.84 3.84 0 0 0 111.334 56.702 Q 111.621 57.45 112.1 57.45 Q 114.626 57.45 116.692 51.435 A 37.025 37.025 0 0 0 116.975 50.575 Q 118.94 44.365 120.109 33.646 A 193.831 193.831 0 0 0 120.35 31.3 Z M 317.05 31.3 L 317.05 30.45 A 34.603 34.603 0 0 0 316.064 29.657 Q 315.16 28.958 314.503 28.572 A 5.321 5.321 0 0 0 313.875 28.25 A 5.035 5.035 0 0 0 312.974 27.976 Q 312.507 27.877 311.957 27.834 A 11.589 11.589 0 0 0 311.05 27.8 A 1.935 1.935 0 0 0 309.554 28.537 Q 308.921 29.263 308.492 30.705 A 13.634 13.634 0 0 0 308.25 31.65 Q 307.543 34.852 307.424 40.681 A 121.092 121.092 0 0 0 307.4 43.15 Q 307.4 49.25 307.5 52.175 Q 307.598 55.052 307.89 56.236 A 4.855 4.855 0 0 0 307.9 56.275 A 3.84 3.84 0 0 0 308.034 56.702 Q 308.321 57.45 308.8 57.45 Q 311.326 57.45 313.392 51.435 A 37.025 37.025 0 0 0 313.675 50.575 Q 315.64 44.365 316.809 33.646 A 193.831 193.831 0 0 0 317.05 31.3 Z M 564.2 31.3 L 564.2 30.45 A 34.603 34.603 0 0 0 563.214 29.657 Q 562.31 28.958 561.653 28.572 A 5.321 5.321 0 0 0 561.025 28.25 A 5.035 5.035 0 0 0 560.124 27.976 Q 559.657 27.877 559.107 27.834 A 11.589 11.589 0 0 0 558.2 27.8 A 1.935 1.935 0 0 0 556.704 28.537 Q 556.071 29.263 555.642 30.705 A 13.634 13.634 0 0 0 555.4 31.65 Q 554.693 34.852 554.574 40.681 A 121.092 121.092 0 0 0 554.55 43.15 Q 554.55 49.25 554.65 52.175 Q 554.748 55.052 555.04 56.236 A 4.855 4.855 0 0 0 555.05 56.275 A 3.84 3.84 0 0 0 555.184 56.702 Q 555.471 57.45 555.95 57.45 Q 558.476 57.45 560.542 51.435 A 37.025 37.025 0 0 0 560.825 50.575 Q 562.79 44.365 563.959 33.646 A 193.831 193.831 0 0 0 564.2 31.3 Z M 692.5 65.5 L 692.15 65.1 L 692.15 65.5 L 692.5 65.5 Z" vector-effect="non-scaling-stroke"/></g></svg>