<svg width="572.7" height="72.1" viewBox="0 0 572.7 72.1" xmlns="http://www.w3.org/2000/svg"><g id="svgGroup" stroke-linecap="round" fill-rule="evenodd" font-size="9pt" stroke="#000" stroke-width="0.25mm" fill="none" style="stroke:#000;stroke-width:0.25mm;fill:none"><path d="M 318.4 72.1 L 335.4 60.6 L 336.1 43.4 L 320.6 29.9 L 304.4 31 L 297.9 25.5 L 297.2 20.5 L 304.9 10.8 L 318.2 9.9 L 324.9 16.2 L 324.5 23.2 L 333.9 22.5 L 335 14.9 L 321.4 0 L 299.8 1.5 L 286.6 17.4 L 288.4 33.6 L 298.6 41.5 L 314.8 40.4 L 324.8 47.5 L 325.4 54.7 L 316.4 61.2 L 299.9 60.8 L 289.7 50.8 L 282.6 56.9 L 297.6 71.9 L 318.4 72.1 Z M 343.1 69.1 L 353.3 69.1 L 353.7 53.3 L 387.5 54.2 L 387.5 69.1 L 396.9 69.1 L 399.9 4.3 L 387.3 4.6 L 387.5 44.1 L 354 44.1 L 355.5 5.4 L 343.1 5.7 L 343.1 69.1 Z M 506.5 70.1 L 518.1 66.9 L 501.7 39.7 L 512.1 29.9 L 510.8 12.9 L 499.1 2.8 L 469.1 4.9 L 470.1 68.6 L 482.7 67.6 L 481.9 41.9 L 489.1 41.1 L 506.5 70.1 Z M 103.4 71.1 L 114.2 66.5 L 95.8 3.5 L 70.4 1.5 L 56 68.9 L 68.6 68.9 L 71.4 51.4 L 97.5 48.7 L 103.4 71.1 Z M 453.3 71.1 L 464.1 66.5 L 445.7 3.5 L 420.3 1.5 L 405.9 68.9 L 418.5 68.9 L 421.3 51.4 L 447.4 48.7 L 453.3 71.1 Z M 142.4 65.1 L 158.6 13.9 L 147.6 11.5 L 137.4 50.5 L 128.6 15.3 L 117.2 17.3 L 130.6 64.1 L 142.4 65.1 Z M 199.2 69.1 L 236.8 66.7 L 249.6 53.1 L 248.4 19.5 L 230 1.9 L 196.2 6.3 L 199.2 69.1 Z M 534.7 71.1 L 536.5 43.7 L 563.9 43.7 L 572.7 31.7 L 572.7 14.3 L 562.5 5.9 L 528.3 5.9 L 524.1 69.1 L 534.7 71.1 Z M 4 71.1 L 41 68 L 51 54.5 L 46.4 15.2 L 27.8 2.3 L 0 7.1 L 4 71.1 Z M 176.2 70.1 L 185.2 67.9 L 181.6 7.9 L 169.6 9.9 L 176.2 70.1 Z M 211.2 59.9 L 208.9 16.5 L 225.8 13.1 L 238.6 23.9 L 238.6 49.5 L 232.4 57.1 L 211.2 59.9 Z M 13.4 60.7 L 10 15.6 L 25.6 12.5 L 36 20.1 L 38.6 51.1 L 33.6 57.9 L 13.4 60.7 Z M 556.5 36.3 L 537.1 34.5 L 538.4 14.5 L 557.9 14.5 L 563.5 21.1 L 563.5 30.5 L 556.5 36.3 Z M 73.8 40.1 L 79.7 12.6 L 88.1 13.2 L 94.3 37.2 L 73.8 40.1 Z M 423.7 40.1 L 429.6 12.6 L 438 13.2 L 444.2 37.2 L 423.7 40.1 Z M 481.2 31.2 L 480.4 13.2 L 495.7 12 L 502.6 18.4 L 502.1 26.4 L 498.5 30.2 L 481.2 31.2 Z" vector-effect="non-scaling-stroke"/></g></svg>