<svg width="710.551" height="93.25" viewBox="0 0 710.551 93.25" xmlns="http://www.w3.org/2000/svg"><g id="svgGroup" stroke-linecap="round" fill-rule="evenodd" font-size="9pt" stroke="#000" stroke-width="0.25mm" fill="#c0ffee" style="margin:.5mm;stroke:#000;stroke-width:0.25mm;fill:#c0ffee"><path d="M 500.45 64.55 L 500.45 73.15 A 80.641 80.641 0 0 1 497.926 73.108 Q 496.527 73.064 494.953 72.974 A 153.826 153.826 0 0 1 493 72.85 A 252.552 252.552 0 0 0 491.431 72.765 Q 489.703 72.677 488.698 72.657 A 27.005 27.005 0 0 0 488.15 72.65 A 36.747 36.747 0 0 0 487.384 72.66 Q 486.157 72.686 483.946 72.784 A 425.368 425.368 0 0 0 482.5 72.85 Q 475.85 73.1 472.25 73.15 L 470.7 70.35 Q 471.3 64.85 471.575 58.425 A 406.49 406.49 0 0 0 471.696 55.355 Q 471.85 50.963 471.85 47.85 A 351.963 351.963 0 0 0 471.846 45.966 Q 471.833 43.626 471.787 42.299 A 44.458 44.458 0 0 0 471.775 42 Q 471.7 40.2 471.35 39.325 A 1.951 1.951 0 0 0 471.143 38.932 Q 470.98 38.699 470.766 38.578 A 1.035 1.035 0 0 0 470.25 38.45 Q 469.05 38.45 467.5 41.25 Q 465.95 44.05 464.5 49.7 Q 463.39 54.026 462.632 59.788 A 140.22 140.22 0 0 0 462.2 63.45 A 10.43 10.43 0 0 0 464.155 64.105 Q 466.247 64.6 469.2 64.6 L 469.2 73.15 A 77.047 77.047 0 0 1 466.316 73.093 Q 464.35 73.019 462.1 72.85 Q 458.88 72.582 456.78 72.554 A 35.618 35.618 0 0 0 456.3 72.55 A 572.802 572.802 0 0 0 447.554 72.614 Q 443.247 72.679 439.459 72.814 A 291.166 291.166 0 0 0 435.1 73 Q 432.866 73.103 431.057 73.136 A 87.602 87.602 0 0 1 429.5 73.15 L 429.5 64.6 Q 433.475 64.518 435.62 63.748 A 6.595 6.595 0 0 0 436.475 63.375 A 5.138 5.138 0 0 0 438.8 60.822 A 7.66 7.66 0 0 0 439.25 59.45 Q 439.744 57.323 439.863 53.262 A 94.911 94.911 0 0 0 439.9 50.5 L 439.9 36.4 A 371.621 371.621 0 0 0 439.864 31.027 Q 439.757 23.607 439.325 20.025 Q 438.854 16.111 437.475 14.263 A 4.675 4.675 0 0 0 436.825 13.55 A 5.616 5.616 0 0 0 435.174 12.571 Q 433.285 11.816 430.2 11.75 L 430.2 3.15 A 14.789 14.789 0 0 1 430.809 3.116 Q 432.469 3.05 437.1 3.05 A 554.256 554.256 0 0 0 444.684 3.001 Q 447.675 2.96 450.385 2.885 A 298.83 298.83 0 0 0 455.525 2.7 Q 463.3 2.35 466.05 1.1 L 468.45 4.15 A 34.714 34.714 0 0 0 466.036 8.92 Q 463.93 13.92 462.298 21.101 A 118.128 118.128 0 0 0 462.075 22.1 Q 459.5 33.9 457.7 54 L 456.7 65 L 458.6 65.3 L 458.65 65.05 Q 459.41 53.53 462.027 44.969 A 55.185 55.185 0 0 1 463.45 40.875 A 55.733 55.733 0 0 1 466.204 34.88 Q 467.782 31.95 469.554 29.688 A 24.644 24.644 0 0 1 472.625 26.4 A 22.479 22.479 0 0 1 476.307 23.724 Q 479.841 21.7 483.45 21.7 Q 487.45 21.7 490.75 24.15 A 14.655 14.655 0 0 1 494.193 27.826 A 20.316 20.316 0 0 1 496 31.225 A 23.887 23.887 0 0 1 497.522 36.598 Q 497.924 39.01 497.949 41.735 A 39.612 39.612 0 0 1 497.95 42.1 A 43.67 43.67 0 0 1 496.903 51.318 Q 495.639 57.165 492.85 63.7 Q 495.299 64.283 498.533 64.474 A 52.921 52.921 0 0 0 500.45 64.55 Z M 425.3 23.15 L 425.25 37.5 A 396.554 396.554 0 0 0 425.22 40.21 Q 425.21 41.421 425.205 42.768 A 783.015 783.015 0 0 0 425.2 45.6 L 403.6 45.6 A 34.349 34.349 0 0 0 403.397 43.014 Q 403.264 41.852 403.051 40.583 A 57.234 57.234 0 0 0 402.9 39.725 A 29.338 29.338 0 0 0 402.228 36.842 Q 401.785 35.314 401.2 34.025 A 8.019 8.019 0 0 0 400.7 33.08 Q 400.043 32.032 399.263 31.726 A 1.8 1.8 0 0 0 398.6 31.6 A 2.157 2.157 0 0 0 397.987 31.682 A 1.537 1.537 0 0 0 397.075 32.4 A 3.754 3.754 0 0 0 396.712 33.244 Q 396.554 33.774 396.5 34.425 A 21.432 21.432 0 0 0 396.457 35.114 Q 396.418 35.904 396.406 37.019 A 100.067 100.067 0 0 0 396.4 38.1 Q 396.4 41.5 398.475 44.05 Q 400.55 46.6 406.3 48.4 L 407.9 48.8 A 58.78 58.78 0 0 1 413.771 50.384 A 51.179 51.179 0 0 1 415.675 51.05 A 17.373 17.373 0 0 1 420.958 54.213 A 21.075 21.075 0 0 1 422.3 55.475 Q 425.3 58.55 425.3 63.5 A 9.639 9.639 0 0 1 424.628 67.137 A 9.024 9.024 0 0 1 423.175 69.55 A 11.882 11.882 0 0 1 420.065 72.157 A 16.531 16.531 0 0 1 417.225 73.475 Q 413.457 74.83 408.499 74.85 A 36.893 36.893 0 0 1 408.35 74.85 A 31.739 31.739 0 0 1 404.621 74.645 Q 400.818 74.194 398.325 72.75 A 12.473 12.473 0 0 1 393.406 67.464 A 15.802 15.802 0 0 1 392.925 66.425 A 29.097 29.097 0 0 1 391.797 63.157 Q 391.302 61.424 390.89 59.36 A 74.785 74.785 0 0 1 390.15 54.9 L 387.55 54.85 A 67.735 67.735 0 0 0 388.661 62.158 A 77.698 77.698 0 0 0 389.225 64.675 A 130.455 130.455 0 0 0 390.148 68.281 Q 390.919 71.119 391.7 73.4 L 370.95 73.4 L 371 59.05 A 396.554 396.554 0 0 0 371.031 56.341 Q 371.041 55.13 371.045 53.782 A 783.015 783.015 0 0 0 371.05 50.95 L 392.2 50.95 L 392.7 53.2 Q 393.442 56.538 394.014 58.671 A 54.801 54.801 0 0 0 394.25 59.525 Q 394.9 61.8 395.875 63.375 A 4.491 4.491 0 0 0 396.457 64.137 Q 396.863 64.556 397.327 64.759 A 2.276 2.276 0 0 0 398.25 64.95 A 1.209 1.209 0 0 0 399.263 64.419 Q 399.409 64.222 399.524 63.953 A 3.22 3.22 0 0 0 399.575 63.825 A 4.708 4.708 0 0 0 399.776 63.1 Q 400 61.989 400 60.1 Q 400 59.235 399.966 58.675 A 10.033 10.033 0 0 0 399.95 58.45 A 10.234 10.234 0 0 0 398.852 54.228 A 13.067 13.067 0 0 0 398.025 52.8 A 9.107 9.107 0 0 0 395.6 50.292 A 8.534 8.534 0 0 0 393.2 49.15 Q 392.405 48.916 389.333 48.157 A 595.564 595.564 0 0 0 388.9 48.05 A 131.119 131.119 0 0 1 384.905 47.015 Q 383.13 46.523 381.602 46.034 A 59.564 59.564 0 0 1 379.375 45.275 Q 375.6 43.9 372.775 41.05 A 9.61 9.61 0 0 1 370.076 35.463 A 13.351 13.351 0 0 1 369.95 33.6 Q 369.95 30.05 371.9 27.35 A 11.688 11.688 0 0 1 375.434 24.159 A 15.162 15.162 0 0 1 377.4 23.175 A 18.721 18.721 0 0 1 381.725 21.988 A 25.583 25.583 0 0 1 385.65 21.7 A 31.362 31.362 0 0 1 390.127 22.001 Q 393.612 22.504 396.225 23.85 A 15.3 15.3 0 0 1 402.62 30.096 A 18.551 18.551 0 0 1 402.775 30.375 Q 405.15 34.75 406.1 41.65 L 408.7 41.7 A 131.957 131.957 0 0 0 406.933 32.896 Q 405.978 28.889 404.834 25.41 A 73.364 73.364 0 0 0 404.05 23.15 L 425.3 23.15 Z M 670.9 67.35 L 670.75 71.35 L 670.7 73.35 Q 670.7 78 673.175 81.55 A 7.162 7.162 0 0 0 676.129 83.931 Q 678.749 85.142 683 85.2 L 683 93.25 A 92.438 92.438 0 0 1 680.116 93.202 Q 678.15 93.141 675.9 93 Q 669.326 92.687 664.991 92.654 A 130.169 130.169 0 0 0 664 92.65 Q 658.411 92.65 654.771 92.768 A 113.956 113.956 0 0 0 652.725 92.85 A 888.583 888.583 0 0 1 651.355 92.918 Q 649.143 93.026 648.44 93.046 A 9.244 9.244 0 0 1 648.2 93.05 A 341.423 341.423 0 0 1 646.334 93.137 Q 644.322 93.224 643.144 93.244 A 37.599 37.599 0 0 1 642.5 93.25 L 642.5 85.2 Q 645.576 85.144 647.511 84.127 A 5.717 5.717 0 0 0 649.85 81.925 A 13.254 13.254 0 0 0 651.395 77.705 A 18.127 18.127 0 0 0 651.7 74.3 L 651.65 71.35 L 651.55 48 L 651.55 46.3 Q 651.55 40.05 651.1 37.4 A 6.552 6.552 0 0 0 650.359 35.25 A 5.762 5.762 0 0 0 648.575 33.325 A 6.58 6.58 0 0 0 647.006 32.56 Q 645.424 32.011 643.035 31.826 A 30.919 30.919 0 0 0 641.6 31.75 L 641.6 23.15 Q 642.9 23.15 644 23.2 Q 648.5 23.3 653.6 23.3 A 256.166 256.166 0 0 0 661.269 23.194 Q 668.207 22.985 672.805 22.366 A 39.58 39.58 0 0 0 677 21.6 L 678.3 23.15 Q 674.522 31.046 671.894 41.592 A 135.875 135.875 0 0 0 671.725 42.275 A 133.517 133.517 0 0 0 669.695 52.119 Q 668.816 57.446 668.55 62.2 L 670.95 63.9 Q 671.289 51.72 674.384 42.367 A 54.858 54.858 0 0 1 674.6 41.725 A 47.465 47.465 0 0 1 677.529 34.901 Q 680.088 30.09 683.5 26.875 A 19.891 19.891 0 0 1 689.19 23.046 A 17.487 17.487 0 0 1 696.25 21.6 A 10.779 10.779 0 0 1 703.424 24.313 A 13.652 13.652 0 0 1 703.525 24.4 Q 706.75 27.2 708.65 33.025 A 34.323 34.323 0 0 1 709.863 38.139 Q 710.293 40.775 710.454 43.831 A 72.597 72.597 0 0 1 710.55 47.65 A 49.987 49.987 0 0 1 710.134 54.29 Q 709.677 57.694 708.719 60.582 A 27.55 27.55 0 0 1 708.025 62.45 Q 705.5 68.55 700.975 71.625 A 17.832 17.832 0 0 1 691.966 74.652 A 22.048 22.048 0 0 1 690.5 74.7 A 25.509 25.509 0 0 1 684.442 73.941 A 32.241 32.241 0 0 1 680.9 72.85 A 38.081 38.081 0 0 1 674.653 69.836 A 47.957 47.957 0 0 1 670.9 67.35 Z M 57.1 45.7 L 57.1 49.8 Q 57.1 53.224 57.462 55.822 A 25.357 25.357 0 0 0 57.725 57.375 A 9.995 9.995 0 0 0 59.093 60.819 A 9.345 9.345 0 0 0 60.475 62.5 A 6.805 6.805 0 0 0 63.021 64.017 Q 64.067 64.378 65.346 64.516 A 15.264 15.264 0 0 0 66.8 64.6 L 66.8 73.05 Q 61.171 72.749 56.687 72.707 A 152.397 152.397 0 0 0 55.25 72.7 Q 46.492 72.7 39.962 73.755 A 50.838 50.838 0 0 0 34.6 74.9 L 32.15 71.65 A 42.383 42.383 0 0 0 36.391 63.879 A 53.369 53.369 0 0 0 38.325 58.475 A 73.418 73.418 0 0 0 40.824 46.48 A 85.619 85.619 0 0 0 41.25 42.2 L 41.9 33.65 L 39.6 32 Q 39.262 44.18 36.167 53.534 A 54.858 54.858 0 0 1 35.95 54.175 A 47.465 47.465 0 0 1 33.021 61 Q 30.463 65.811 27.05 69.025 A 19.891 19.891 0 0 1 21.361 72.855 A 17.487 17.487 0 0 1 14.3 74.3 A 10.779 10.779 0 0 1 7.126 71.587 A 13.652 13.652 0 0 1 7.025 71.5 Q 3.8 68.7 1.9 62.875 A 34.323 34.323 0 0 1 0.688 57.761 Q 0.258 55.125 0.097 52.069 A 72.597 72.597 0 0 1 0 48.25 A 49.987 49.987 0 0 1 0.417 41.611 Q 0.874 38.207 1.831 35.318 A 27.55 27.55 0 0 1 2.525 33.45 Q 5.05 27.35 9.575 24.275 A 17.832 17.832 0 0 1 18.585 21.248 A 22.048 22.048 0 0 1 20.05 21.2 A 25.127 25.127 0 0 1 25.98 21.939 A 31.796 31.796 0 0 1 29.45 23 A 39.106 39.106 0 0 1 35.556 25.892 A 49.215 49.215 0 0 1 39.3 28.3 Q 39.35 27.25 39.35 25.35 Q 39.35 20.75 38.5 18.075 Q 37.65 15.4 35.225 13.975 Q 32.8 12.55 28.05 12.45 L 28.05 3.15 L 34.2 2.95 Q 43.146 2.682 49.07 2.414 A 469.614 469.614 0 0 0 50.425 2.35 A 154.184 154.184 0 0 0 52.949 2.209 Q 56.369 1.988 58.059 1.684 A 10.853 10.853 0 0 0 58.7 1.55 L 60.45 2.35 Q 58.7 9.75 57.9 16 Q 57.1 22.25 57.1 31.15 L 57.1 45.7 Z M 325.2 45.7 L 325.2 49.8 Q 325.2 53.224 325.562 55.822 A 25.357 25.357 0 0 0 325.825 57.375 A 9.995 9.995 0 0 0 327.193 60.819 A 9.345 9.345 0 0 0 328.575 62.5 A 6.805 6.805 0 0 0 331.121 64.017 Q 332.167 64.378 333.446 64.516 A 15.264 15.264 0 0 0 334.9 64.6 L 334.9 73.05 Q 329.271 72.749 324.787 72.707 A 152.397 152.397 0 0 0 323.35 72.7 Q 314.592 72.7 308.062 73.755 A 50.838 50.838 0 0 0 302.7 74.9 L 300.25 71.65 A 42.383 42.383 0 0 0 304.491 63.879 A 53.369 53.369 0 0 0 306.425 58.475 A 73.418 73.418 0 0 0 308.924 46.48 A 85.619 85.619 0 0 0 309.35 42.2 L 310 33.65 L 307.7 32 Q 307.362 44.18 304.267 53.534 A 54.858 54.858 0 0 1 304.05 54.175 A 47.465 47.465 0 0 1 301.121 61 Q 298.563 65.811 295.15 69.025 A 19.891 19.891 0 0 1 289.461 72.855 A 17.487 17.487 0 0 1 282.4 74.3 A 10.779 10.779 0 0 1 275.226 71.587 A 13.652 13.652 0 0 1 275.125 71.5 Q 271.9 68.7 270 62.875 A 34.323 34.323 0 0 1 268.788 57.761 Q 268.358 55.125 268.197 52.069 A 72.597 72.597 0 0 1 268.1 48.25 A 49.987 49.987 0 0 1 268.517 41.611 Q 268.974 38.207 269.931 35.318 A 27.55 27.55 0 0 1 270.625 33.45 Q 273.15 27.35 277.675 24.275 A 17.832 17.832 0 0 1 286.685 21.248 A 22.048 22.048 0 0 1 288.15 21.2 A 25.127 25.127 0 0 1 294.08 21.939 A 31.796 31.796 0 0 1 297.55 23 A 39.106 39.106 0 0 1 303.656 25.892 A 49.215 49.215 0 0 1 307.4 28.3 Q 307.45 27.25 307.45 25.35 Q 307.45 20.75 306.6 18.075 Q 305.75 15.4 303.325 13.975 Q 300.9 12.55 296.15 12.45 L 296.15 3.15 L 302.3 2.95 Q 311.246 2.682 317.17 2.414 A 469.614 469.614 0 0 0 318.525 2.35 A 154.184 154.184 0 0 0 321.049 2.209 Q 324.469 1.988 326.159 1.684 A 10.853 10.853 0 0 0 326.8 1.55 L 328.55 2.35 Q 326.8 9.75 326 16 Q 325.2 22.25 325.2 31.15 L 325.2 45.7 Z M 216.95 23.15 L 216.95 32.5 Q 213.278 32.5 211.185 32.989 A 8.655 8.655 0 0 0 210.275 33.25 A 6.041 6.041 0 0 0 208.322 34.417 Q 207.339 35.272 206.475 36.625 Q 204.8 39.25 202.3 45.75 A 714.371 714.371 0 0 0 200.405 50.716 Q 197.757 57.738 196.275 62.2 Q 194.3 68.15 193.35 73.15 L 193.15 73.1 L 193.25 73.15 Q 191.45 73.15 189.3 73.05 Q 187.15 72.95 185.35 72.9 Q 180.097 72.655 177.544 72.65 A 53.687 53.687 0 0 0 177.45 72.65 Q 175.2 72.65 172.45 72.9 Q 171.852 72.946 170.469 73.035 A 532.327 532.327 0 0 1 170.225 73.05 Q 168.755 73.144 167.568 73.15 A 32.05 32.05 0 0 1 167.4 73.15 A 65.181 65.181 0 0 0 166.104 67.191 A 83.791 83.791 0 0 0 164.625 62.25 A 165.446 165.446 0 0 0 163.521 59.044 Q 162.235 55.422 160.344 50.497 A 680.805 680.805 0 0 0 158.5 45.75 A 127.531 127.531 0 0 0 157.302 42.763 Q 155.582 38.638 154.325 36.65 Q 152.65 34 150.625 33.25 Q 148.956 32.632 145.739 32.523 A 42.748 42.748 0 0 0 144.3 32.5 L 144.3 23.15 A 118.328 118.328 0 0 1 145.477 23.157 Q 147.357 23.175 149.925 23.25 Q 153.35 23.35 154.85 23.4 Q 159.138 23.592 161.989 23.637 A 102.957 102.957 0 0 0 163.6 23.65 A 44.671 44.671 0 0 0 164.245 23.643 Q 166.144 23.613 172.4 23.45 A 9908.5 9908.5 0 0 1 175.171 23.392 Q 184.288 23.2 185.25 23.2 L 185.4 32.7 Q 178.6 32.7 178.6 35.25 Q 178.6 36.117 179.162 37.046 A 5.504 5.504 0 0 0 179.275 37.225 A 17.004 17.004 0 0 0 179.658 37.78 Q 180.1 38.395 180.734 39.19 A 63.213 63.213 0 0 0 181.35 39.95 A 22.927 22.927 0 0 1 184.148 44.371 A 16.365 16.365 0 0 1 185.8 51.45 Q 185.8 54.55 184.8 57.45 A 46.442 46.442 0 0 1 183.924 59.773 Q 183.088 61.832 181.9 64.3 A 273.453 273.453 0 0 0 181.236 65.76 Q 180.406 67.6 180.005 68.58 A 19.621 19.621 0 0 0 179.8 69.1 L 182.5 69.65 L 185.7 61.95 L 192.35 43.8 Q 192.6 43.1 192.85 42.55 A 21.239 21.239 0 0 0 193.024 42.159 Q 193.107 41.966 193.175 41.796 A 10.257 10.257 0 0 0 193.25 41.6 Q 193.966 39.945 194.362 38.831 A 21.052 21.052 0 0 0 194.45 38.575 A 7.845 7.845 0 0 0 194.757 37.397 A 6.085 6.085 0 0 0 194.85 36.35 Q 194.85 34.6 193.3 33.65 A 4.81 4.81 0 0 0 192.191 33.17 Q 190.652 32.7 188.05 32.7 L 188.2 23.2 Q 190.15 23.2 192.5 23.45 A 18.893 18.893 0 0 0 192.766 23.475 Q 193.192 23.511 193.968 23.565 A 225.45 225.45 0 0 0 194.475 23.6 Q 195.95 23.7 197.4 23.7 Q 204.85 23.65 212.15 23.3 A 132.076 132.076 0 0 1 214.161 23.209 Q 214.946 23.18 215.644 23.165 A 62.422 62.422 0 0 1 216.95 23.15 Z M 638.35 24.15 L 633.9 46.85 A 33.935 33.935 0 0 0 628.708 44.915 Q 625.718 44.086 622.926 44.008 A 20.698 20.698 0 0 0 622.35 44 A 11.426 11.426 0 0 0 619.935 44.242 A 8.024 8.024 0 0 0 616.95 45.525 Q 614.915 46.969 613.484 50.834 A 25.155 25.155 0 0 0 613.325 51.275 A 29.611 29.611 0 0 0 612.479 54.242 Q 611.727 57.445 611.212 61.98 A 115.358 115.358 0 0 0 611.05 63.5 A 24.103 24.103 0 0 0 614.116 64.42 Q 616.029 64.85 617.75 64.85 L 617.75 73.15 Q 615.1 73.15 611.875 73.05 A 1468.602 1468.602 0 0 1 610.429 73.005 Q 608.835 72.954 607.907 72.92 A 159.502 159.502 0 0 1 607.4 72.9 A 260.112 260.112 0 0 0 602.915 72.729 Q 600.867 72.67 599.042 72.655 A 146.717 146.717 0 0 0 597.85 72.65 Q 595.65 72.65 587.25 72.9 Q 583.641 73.072 580.693 73.126 A 139.884 139.884 0 0 1 578.15 73.15 L 578.15 64.85 A 23.354 23.354 0 0 0 580.572 64.707 Q 583.419 64.378 585 63.3 A 6.761 6.761 0 0 0 587.598 59.856 A 9.038 9.038 0 0 0 587.875 58.9 Q 588.55 56 588.55 50.5 L 588.55 45.75 A 65.023 65.023 0 0 0 588.492 42.902 Q 588.363 39.971 587.95 37.925 A 8.958 8.958 0 0 0 586.904 35.126 A 7.928 7.928 0 0 0 585.225 33.125 A 6.788 6.788 0 0 0 583.054 31.901 Q 581.307 31.279 578.85 31.25 L 578.85 23.15 A 17.372 17.372 0 0 1 579.503 23.116 Q 581.135 23.055 585.399 23.051 A 666.662 666.662 0 0 1 586.15 23.05 A 557.191 557.191 0 0 0 592.886 23.012 Q 595.546 22.979 597.962 22.92 A 304.66 304.66 0 0 0 602.55 22.775 A 94.466 94.466 0 0 0 605.785 22.596 Q 610.275 22.263 612.6 21.55 L 615.1 24.15 Q 611.35 32 609.45 40.25 A 215.53 215.53 0 0 0 608.286 45.597 Q 607.798 47.994 607.439 50.095 A 93.123 93.123 0 0 0 606.85 54 L 605.35 64.85 L 607.5 64.85 Q 607.5 64.679 607.647 63.922 A 44.241 44.241 0 0 1 607.7 63.65 A 111.024 111.024 0 0 1 609.006 53.18 Q 609.978 47.651 611.491 42.873 A 66.124 66.124 0 0 1 611.95 41.475 A 60.566 60.566 0 0 1 614.35 35.45 Q 615.728 32.495 617.296 30.144 A 27.617 27.617 0 0 1 619.85 26.85 Q 623.081 23.307 626.505 22.225 A 10.056 10.056 0 0 1 629.55 21.75 A 15.596 15.596 0 0 1 632.016 21.956 A 20.465 20.465 0 0 1 634.075 22.4 A 18.753 18.753 0 0 1 636.589 23.26 A 14.876 14.876 0 0 1 638.35 24.15 Z M 129.85 45.7 L 129.85 49.8 Q 129.85 53.246 130.217 55.87 A 25.789 25.789 0 0 0 130.475 57.4 A 10.115 10.115 0 0 0 131.746 60.711 A 9.273 9.273 0 0 0 133.225 62.55 A 6.805 6.805 0 0 0 135.771 64.067 Q 136.817 64.428 138.096 64.566 A 15.264 15.264 0 0 0 139.55 64.65 L 139.55 73.05 L 137.4 73.05 A 873.043 873.043 0 0 0 131.935 73.114 Q 125.224 73.215 120.236 73.409 A 284.887 284.887 0 0 0 118.65 73.475 A 113.218 113.218 0 0 0 113.45 73.821 Q 110.884 74.054 108.615 74.398 A 61.223 61.223 0 0 0 106 74.85 L 104 72.25 Q 107.25 65 109.25 57.675 A 106.805 106.805 0 0 0 111.84 45.228 A 120.477 120.477 0 0 0 112.25 42.2 L 113.3 33.65 L 111 32 Q 110.662 44.18 107.567 53.534 A 54.858 54.858 0 0 1 107.35 54.175 A 47.465 47.465 0 0 1 104.421 61 Q 101.863 65.811 98.45 69.025 A 19.891 19.891 0 0 1 92.761 72.855 A 17.487 17.487 0 0 1 85.7 74.3 A 10.779 10.779 0 0 1 78.526 71.587 A 13.652 13.652 0 0 1 78.425 71.5 Q 75.2 68.7 73.3 62.875 A 34.323 34.323 0 0 1 72.088 57.761 Q 71.658 55.125 71.497 52.069 A 72.597 72.597 0 0 1 71.4 48.25 A 49.987 49.987 0 0 1 71.817 41.611 Q 72.274 38.207 73.231 35.318 A 27.55 27.55 0 0 1 73.925 33.45 Q 76.45 27.35 80.975 24.275 A 17.832 17.832 0 0 1 89.985 21.248 A 22.048 22.048 0 0 1 91.45 21.2 A 24.928 24.928 0 0 1 96.731 21.789 A 31.087 31.087 0 0 1 99.725 22.6 A 36.821 36.821 0 0 1 105.434 25.019 A 45.155 45.155 0 0 1 108.45 26.75 A 12.638 12.638 0 0 0 112.21 27.968 A 11.536 11.536 0 0 0 113.95 28.1 Q 115.8 28.1 117.675 27.65 A 50.689 50.689 0 0 0 118.693 27.394 Q 119.824 27.098 121.294 26.668 A 168.52 168.52 0 0 0 122.7 26.25 A 120.334 120.334 0 0 1 126.748 25.072 Q 128.605 24.568 130.279 24.189 A 68.313 68.313 0 0 1 131.375 23.95 Q 135.08 23.175 139.793 23.151 A 59.398 59.398 0 0 1 140.1 23.15 L 140.1 32.4 Q 135.2 32.5 133.125 33.45 A 4.529 4.529 0 0 0 130.755 35.996 A 6.743 6.743 0 0 0 130.45 36.975 A 15.572 15.572 0 0 0 130.188 38.486 Q 129.961 40.234 129.887 42.89 A 100.792 100.792 0 0 0 129.85 45.7 Z M 562.55 45.7 L 562.55 49.8 Q 562.55 53.246 562.917 55.87 A 25.789 25.789 0 0 0 563.175 57.4 A 10.115 10.115 0 0 0 564.446 60.711 A 9.273 9.273 0 0 0 565.925 62.55 A 6.805 6.805 0 0 0 568.471 64.067 Q 569.517 64.428 570.796 64.566 A 15.264 15.264 0 0 0 572.25 64.65 L 572.25 73.05 L 570.1 73.05 A 873.043 873.043 0 0 0 564.635 73.114 Q 557.924 73.215 552.936 73.409 A 284.887 284.887 0 0 0 551.35 73.475 A 113.218 113.218 0 0 0 546.15 73.821 Q 543.584 74.054 541.315 74.398 A 61.223 61.223 0 0 0 538.7 74.85 L 536.7 72.25 Q 539.95 65 541.95 57.675 A 106.805 106.805 0 0 0 544.54 45.228 A 120.477 120.477 0 0 0 544.95 42.2 L 546 33.65 L 543.7 32 Q 543.362 44.18 540.267 53.534 A 54.858 54.858 0 0 1 540.05 54.175 A 47.465 47.465 0 0 1 537.121 61 Q 534.563 65.811 531.15 69.025 A 19.891 19.891 0 0 1 525.461 72.855 A 17.487 17.487 0 0 1 518.4 74.3 A 10.779 10.779 0 0 1 511.226 71.587 A 13.652 13.652 0 0 1 511.125 71.5 Q 507.9 68.7 506 62.875 A 34.323 34.323 0 0 1 504.788 57.761 Q 504.358 55.125 504.197 52.069 A 72.597 72.597 0 0 1 504.1 48.25 A 49.987 49.987 0 0 1 504.517 41.611 Q 504.974 38.207 505.931 35.318 A 27.55 27.55 0 0 1 506.625 33.45 Q 509.15 27.35 513.675 24.275 A 17.832 17.832 0 0 1 522.685 21.248 A 22.048 22.048 0 0 1 524.15 21.2 A 24.928 24.928 0 0 1 529.431 21.789 A 31.087 31.087 0 0 1 532.425 22.6 A 36.821 36.821 0 0 1 538.134 25.019 A 45.155 45.155 0 0 1 541.15 26.75 A 12.638 12.638 0 0 0 544.91 27.968 A 11.536 11.536 0 0 0 546.65 28.1 Q 548.5 28.1 550.375 27.65 A 50.689 50.689 0 0 0 551.393 27.394 Q 552.524 27.098 553.994 26.668 A 168.52 168.52 0 0 0 555.4 26.25 A 120.334 120.334 0 0 1 559.448 25.072 Q 561.305 24.568 562.979 24.189 A 68.313 68.313 0 0 1 564.075 23.95 Q 567.78 23.175 572.493 23.151 A 59.398 59.398 0 0 1 572.8 23.15 L 572.8 32.4 Q 567.9 32.5 565.825 33.45 A 4.529 4.529 0 0 0 563.455 35.996 A 6.743 6.743 0 0 0 563.15 36.975 A 15.572 15.572 0 0 0 562.888 38.486 Q 562.661 40.234 562.587 42.89 A 100.792 100.792 0 0 0 562.55 45.7 Z M 253.2 49.7 L 253.2 51.65 A 60.565 60.565 0 0 0 253.244 54.03 Q 253.34 56.462 253.645 58.173 A 18.189 18.189 0 0 0 253.65 58.2 Q 254.1 60.7 256.35 62.625 Q 258.513 64.476 263.126 64.547 A 24.173 24.173 0 0 0 263.5 64.55 L 263.5 73.15 A 85.183 85.183 0 0 1 262.007 73.136 Q 260.675 73.113 259.05 73.05 Q 256.498 72.952 255.246 72.902 A 789.406 789.406 0 0 1 255.2 72.9 A 212.001 212.001 0 0 0 247.892 72.599 A 178.189 178.189 0 0 0 243.75 72.55 A 285.22 285.22 0 0 0 234.481 72.707 A 337.907 337.907 0 0 0 228.6 72.95 A 814.533 814.533 0 0 1 226.337 73.028 Q 223.498 73.122 222.054 73.144 A 50.822 50.822 0 0 1 221.3 73.15 L 221.3 64.55 Q 225.964 64.55 228.247 62.793 A 5.74 5.74 0 0 0 228.425 62.65 A 8.895 8.895 0 0 0 230.076 60.863 A 7.068 7.068 0 0 0 231.2 58.2 A 22.629 22.629 0 0 0 231.485 56.276 Q 231.7 54.275 231.7 51.65 L 231.7 49.7 L 231.7 45 A 54.671 54.671 0 0 0 231.643 42.411 Q 231.529 40.005 231.185 38.354 A 13.95 13.95 0 0 0 231.1 37.975 Q 230.5 35.45 228.4 34 Q 226.3 32.55 222 32.5 L 222 23.15 Q 224.505 23.15 226.13 23.11 A 77.698 77.698 0 0 0 226.5 23.1 A 498.194 498.194 0 0 0 234.821 23.034 Q 238.726 22.969 242.194 22.839 A 288.634 288.634 0 0 0 243.175 22.8 Q 248.979 22.563 252.351 21.917 A 20.802 20.802 0 0 0 253.95 21.55 L 256.4 24.15 Q 254.85 29.5 254.025 35.125 A 65.512 65.512 0 0 0 253.556 39.385 Q 253.378 41.606 253.289 44.185 A 160.707 160.707 0 0 0 253.2 49.7 Z M 238.955 20.046 A 11.497 11.497 0 0 0 243.4 20.9 Q 246.55 20.9 249.05 19.5 Q 251.55 18.1 252.975 15.75 Q 254.4 13.4 254.4 10.6 A 12.578 12.578 0 0 0 254.392 10.135 A 10.543 10.543 0 0 0 253 5.175 Q 251.6 2.75 249.075 1.375 A 10.94 10.94 0 0 0 246.921 0.485 A 12.432 12.432 0 0 0 243.4 0 A 13.467 13.467 0 0 0 242.588 0.025 A 11.205 11.205 0 0 0 237.8 1.375 Q 235.3 2.75 233.85 5.175 A 10.084 10.084 0 0 0 233.117 6.666 A 10.666 10.666 0 0 0 232.4 10.6 Q 232.4 13.35 233.85 15.725 Q 235.3 18.1 237.825 19.5 A 11.055 11.055 0 0 0 238.955 20.046 Z M 674.15 64.6 L 674.15 65.45 Q 675.705 66.746 676.698 67.329 A 5.321 5.321 0 0 0 677.325 67.65 A 5.035 5.035 0 0 0 678.227 67.924 Q 678.693 68.023 679.244 68.067 A 11.589 11.589 0 0 0 680.15 68.1 A 1.935 1.935 0 0 0 681.646 67.363 Q 682.279 66.637 682.708 65.195 A 13.634 13.634 0 0 0 682.95 64.25 Q 683.657 61.049 683.776 55.22 A 121.092 121.092 0 0 0 683.8 52.75 A 607.44 607.44 0 0 0 683.794 49.899 Q 683.775 45.919 683.7 43.725 Q 683.602 40.849 683.31 39.665 A 4.855 4.855 0 0 0 683.3 39.625 A 3.84 3.84 0 0 0 683.167 39.198 Q 682.879 38.45 682.4 38.45 Q 679.875 38.45 677.809 44.466 A 37.025 37.025 0 0 0 677.525 45.325 Q 675.561 51.536 674.392 62.254 A 193.831 193.831 0 0 0 674.15 64.6 Z M 36.4 31.3 L 36.4 30.45 A 34.603 34.603 0 0 0 35.414 29.657 Q 34.511 28.958 33.853 28.572 A 5.321 5.321 0 0 0 33.225 28.25 A 5.035 5.035 0 0 0 32.324 27.976 Q 31.857 27.877 31.307 27.834 A 11.589 11.589 0 0 0 30.4 27.8 A 1.935 1.935 0 0 0 28.905 28.537 Q 28.271 29.263 27.843 30.705 A 13.634 13.634 0 0 0 27.6 31.65 Q 26.894 34.852 26.775 40.681 A 121.092 121.092 0 0 0 26.75 43.15 Q 26.75 49.25 26.85 52.175 Q 26.949 55.052 27.24 56.236 A 4.855 4.855 0 0 0 27.25 56.275 A 3.84 3.84 0 0 0 27.384 56.702 Q 27.672 57.45 28.15 57.45 Q 30.676 57.45 32.742 51.435 A 37.025 37.025 0 0 0 33.025 50.575 Q 34.99 44.365 36.159 33.646 A 193.831 193.831 0 0 0 36.4 31.3 Z M 107.8 31.3 L 107.8 30.45 A 34.603 34.603 0 0 0 106.814 29.657 Q 105.911 28.958 105.253 28.572 A 5.321 5.321 0 0 0 104.625 28.25 A 5.035 5.035 0 0 0 103.724 27.976 Q 103.257 27.877 102.707 27.834 A 11.589 11.589 0 0 0 101.8 27.8 A 1.935 1.935 0 0 0 100.305 28.537 Q 99.671 29.263 99.243 30.705 A 13.634 13.634 0 0 0 99 31.65 Q 98.294 34.852 98.175 40.681 A 121.092 121.092 0 0 0 98.15 43.15 Q 98.15 49.25 98.25 52.175 Q 98.349 55.052 98.64 56.236 A 4.855 4.855 0 0 0 98.65 56.275 A 3.84 3.84 0 0 0 98.784 56.702 Q 99.072 57.45 99.55 57.45 Q 102.076 57.45 104.142 51.435 A 37.025 37.025 0 0 0 104.425 50.575 Q 106.39 44.365 107.559 33.646 A 193.831 193.831 0 0 0 107.8 31.3 Z M 304.5 31.3 L 304.5 30.45 A 34.603 34.603 0 0 0 303.514 29.657 Q 302.611 28.958 301.953 28.572 A 5.321 5.321 0 0 0 301.325 28.25 A 5.035 5.035 0 0 0 300.424 27.976 Q 299.957 27.877 299.407 27.834 A 11.589 11.589 0 0 0 298.5 27.8 A 1.935 1.935 0 0 0 297.005 28.537 Q 296.371 29.263 295.943 30.705 A 13.634 13.634 0 0 0 295.7 31.65 Q 294.994 34.852 294.875 40.681 A 121.092 121.092 0 0 0 294.85 43.15 Q 294.85 49.25 294.95 52.175 Q 295.049 55.052 295.34 56.236 A 4.855 4.855 0 0 0 295.35 56.275 A 3.84 3.84 0 0 0 295.484 56.702 Q 295.772 57.45 296.25 57.45 Q 298.776 57.45 300.842 51.435 A 37.025 37.025 0 0 0 301.125 50.575 Q 303.09 44.365 304.259 33.646 A 193.831 193.831 0 0 0 304.5 31.3 Z M 540.5 31.3 L 540.5 30.45 A 34.603 34.603 0 0 0 539.514 29.657 Q 538.611 28.958 537.953 28.572 A 5.321 5.321 0 0 0 537.325 28.25 A 5.035 5.035 0 0 0 536.424 27.976 Q 535.957 27.877 535.407 27.834 A 11.589 11.589 0 0 0 534.5 27.8 A 1.935 1.935 0 0 0 533.005 28.537 Q 532.371 29.263 531.943 30.705 A 13.634 13.634 0 0 0 531.7 31.65 Q 530.994 34.852 530.875 40.681 A 121.092 121.092 0 0 0 530.85 43.15 Q 530.85 49.25 530.95 52.175 Q 531.049 55.052 531.34 56.236 A 4.855 4.855 0 0 0 531.35 56.275 A 3.84 3.84 0 0 0 531.484 56.702 Q 531.772 57.45 532.25 57.45 Q 534.776 57.45 536.842 51.435 A 37.025 37.025 0 0 0 537.125 50.575 Q 539.09 44.365 540.259 33.646 A 193.831 193.831 0 0 0 540.5 31.3 Z M 668.8 65.5 L 668.45 65.1 L 668.45 65.5 L 668.8 65.5 Z" vector-effect="non-scaling-stroke"/></g></svg>